<svg width="32" height="32" viewBox="0 0 32 32" version="1.1" xmlns="http://www.w3.org/2000/svg" xmlns:xlink="http://www.w3.org/1999/xlink" xmlns:figma="http://www.figma.com/figma/ns">
<title>search param</title>
<desc>Created using Figma</desc>
<g id="Canvas" transform="translate(-5614 357)" figma:type="canvas">
<g id="search param" figma:type="frame">
<g id="Subtract" figma:type="vector-operation">
<use xlink:href="#path0_fill" transform="translate(5614 -357)" fill="#FFFFFF"/>
</g>
</g>
</g>
<defs>
<path id="path0_fill" fill-rule="evenodd" d="M 32 0L 0 0L 0 32L 32 32L 32 0ZM 16.4766 22L 15 22L 13.8672 18.7734L 9.38281 18.7734L 8.25 22L 6.77344 22L 10.9297 10.7266L 12.3203 10.7266L 16.4766 22ZM 11.6875 12.5469L 11.5625 12.5469L 9.79688 17.5781L 13.4531 17.5781L 11.6875 12.5469ZM 19.0938 19.6094C 19.0938 20.4688 19.8203 20.9688 20.7969 20.9688C 22.1797 20.9688 23.2031 20.0625 23.2031 18.8594L 23.2031 18.0859L 20.9375 18.2344C 19.6562 18.3203 19.0938 18.7656 19.0938 19.6094ZM 23.1406 20.7578C 22.5938 21.6562 21.6719 22.1484 20.5469 22.1484C 18.9141 22.1484 17.7031 21.1797 17.7031 19.6406C 17.7031 18.1328 18.8125 17.2656 20.7734 17.1484L 23.2031 17L 23.2031 16.2344C 23.2031 15.1953 22.5547 14.625 21.2969 14.625C 20.2891 14.625 19.5859 15.0078 19.3984 15.6719L 18.0391 15.6719C 18.2188 14.3203 19.5469 13.4297 21.3438 13.4297C 23.3984 13.4297 24.5469 14.4844 24.5469 16.2344L 24.5469 22L 23.2656 22L 23.2656 20.7578L 23.1406 20.7578Z"/>
</defs>
</svg>
