<svg width="20" height="20" viewBox="0 0 20 20" version="1.1" xmlns="http://www.w3.org/2000/svg" xmlns:xlink="http://www.w3.org/1999/xlink" xmlns:figma="http://www.figma.com/figma/ns">
<title>Vector</title>
<desc>Created using Figma</desc>
<g id="Canvas" transform="translate(-5401 -3882)" figma:type="canvas">
<g id="Vector" figma:type="vector">
<use xlink:href="#path0_fill" transform="translate(5401 3882)" fill="#233043"/>
</g>
</g>
<defs>
<path id="path0_fill" d="M 10 0C 4.477 0 0 4.477 0 10C 0 14.42 2.87 18.17 6.84 19.5C 7.34 19.58 7.5 19.27 7.5 19C 7.5 18.77 7.5 18.14 7.5 17.31C 4.73 17.91 4.14 15.97 4.14 15.97C 3.68 14.81 3.03 14.5 3.03 14.5C 2.12 13.88 3.1 13.9 3.1 13.9C 4.1 13.97 4.63 14.93 4.63 14.93C 5.5 16.45 6.97 16 7.54 15.76C 7.63 15.11 7.89 14.67 8.17 14.42C 5.95 14.17 3.62 13.31 3.62 9.5C 3.62 8.39 4 7.5 4.65 6.79C 4.55 6.54 4.2 5.5 4.75 4.15C 4.75 4.15 5.59 3.88 7.5 5.17C 8.29 4.95 9.15 4.84 10 4.84C 10.85 4.84 11.71 4.95 12.5 5.17C 14.41 3.88 15.25 4.15 15.25 4.15C 15.8 5.5 15.45 6.54 15.35 6.79C 16 7.5 16.38 8.39 16.38 9.5C 16.38 13.32 14.04 14.16 11.81 14.41C 12.17 14.72 12.5 15.33 12.5 16.26C 12.5 17.6 12.5 18.68 12.5 19C 12.5 19.27 12.66 19.59 13.17 19.5C 17.14 18.16 20 14.42 20 10C 20 4.477 15.523 0 10 0Z"/>
</defs>
</svg>
