<svg width="28" height="19" viewBox="0 0 28 19" version="1.1" xmlns="http://www.w3.org/2000/svg" xmlns:xlink="http://www.w3.org/1999/xlink" xmlns:figma="http://www.figma.com/figma/ns">
<title>/sunglasses</title>
<desc>Created using Figma</desc>
<g id="Canvas" transform="translate(-5778 -3622)" figma:type="canvas">
<g id="icon/sunglasses" figma:type="frame">
<g id="Vector" figma:type="vector">
<use xlink:href="#path0_fill" transform="translate(5778 3622)" fill="#5D7EAC"/>
</g>
</g>
</g>
<defs>
<path id="path0_fill" d="M 27.5613 12.1827C 26.9427 12.6787 26.8267 14.0667 26.3747 15.4973C 25.668 17.7347 24.444 18.996 21 18.996C 16.9933 18.996 16.416 17.7987 15.5933 15.4973C 15.032 13.9253 15.3107 11.9987 14 11.9987C 12.6893 11.9987 12.968 13.9253 12.4067 15.4973C 11.5853 17.7987 11.0067 18.996 7 18.996C 3.55467 18.996 2.33201 17.7347 1.62534 15.4973C 1.17334 14.0667 1.05734 12.6787 0.438672 12.1827C 0.174672 11.992 0.0133385 11.6893 5.21114e-06 11.364L 5.21114e-06 10.3587C -0.00132812 10 0.253339 9.69067 0.605339 9.62267C 2.71334 9.21867 4.85467 9.00933 7 9C 11.6027 9 12.1227 10 14 10C 15.8773 10 16.3973 9 21 9C 23.1467 9.00933 25.2867 9.21867 27.3947 9.62267C 27.7467 9.69067 28.0013 10 28 10.3587L 28 11.364C 27.9867 11.6893 27.8253 11.992 27.5613 12.1827ZM 7.18267 11.1907L 5.73067 16.632C 5.69467 16.764 5.77201 16.9013 5.90401 16.9373C 5.91467 16.94 5.92667 16.9427 5.93867 16.944C 6.29201 16.9813 6.64534 16.9987 7 16.996C 7.36667 16.996 7.684 16.9867 7.96667 16.9693C 8.07334 16.9627 8.16267 16.888 8.18934 16.784L 9.60667 11.4707C 9.64267 11.3387 9.56667 11.2027 9.43467 11.1653C 9.42934 11.164 9.42401 11.1627 9.41867 11.1613C 8.76134 11.0533 8.09734 11 7.43067 11.0027C 7.316 11.0027 7.21334 11.0787 7.18267 11.1907ZM 21.1827 11.1907L 19.7253 16.652C 19.6907 16.7853 19.7707 16.9227 19.904 16.9587C 19.92 16.9627 19.936 16.9653 19.952 16.9667C 20.2533 16.988 20.5987 16.9987 21 16.9987C 21.328 17 21.656 16.9853 21.9827 16.9533C 22.0853 16.9413 22.1693 16.868 22.1947 16.768L 23.6133 11.4507C 23.648 11.316 23.568 11.1787 23.4347 11.144C 23.4253 11.1413 23.4173 11.14 23.408 11.1387C 22.7533 11.048 22.0933 11.0027 21.432 11.0053C 21.316 11.0027 21.2133 11.0787 21.1827 11.1907ZM 26.5853 8.50533C 26.3173 8.468 25.4747 8.42 25.2027 8.38133C 24.9253 8.34 24.696 8.14667 24.6067 7.88133C 22.9333 2.99733 22.4253 -0.186667 21.0333 4.14933C 20.9533 4.404 20.6813 4.54533 20.4267 4.46533C 20.3493 4.44133 20.28 4.39733 20.2227 4.34C 19.9667 4.07733 19.9787 4.08933 19.7293 3.83333C 19.4787 3.57333 19.4413 3.176 19.6387 2.87467C 20.288 1.88933 21.7453 0.00133358 22.7427 0.00133358C 24.0187 0.00133358 25.1573 2.12267 26.9853 8.01467C 27.0507 8.212 26.9427 8.42533 26.7453 8.49067C 26.6933 8.50667 26.6387 8.512 26.5853 8.50533ZM 7.77734 4.34C 7.59201 4.532 7.28534 4.53867 7.09334 4.35333C 7.03467 4.29733 6.99067 4.22667 6.96667 4.14933C 5.57467 -0.186667 5.06667 2.99733 3.39334 7.88133C 3.30534 8.14667 3.07467 8.34 2.79867 8.38133C 2.52534 8.42 1.68267 8.468 1.41601 8.50533C 1.20934 8.52933 1.02267 8.38 0.998672 8.17333C 0.992005 8.11867 0.998672 8.064 1.01467 8.01333C 2.84267 2.12133 3.98134 -2.89917e-07 5.256 -2.89917e-07C 6.25334 -2.89917e-07 7.71067 1.88933 8.36 2.87333C 8.55734 3.17467 8.52001 3.57333 8.26934 3.832C 8.02001 4.08933 8.03201 4.07733 7.77734 4.34Z"/>
</defs>
</svg>
