<svg width="24" height="16" viewBox="0 0 24 16" xmlns="http://www.w3.org/2000/svg"><path d="M1.031 9h19.08l-5.672 5.743c-.303.274-.002.735.282 1.028a.761.761 0 0 0 .547.229.762.762 0 0 0 .513-.197l7.985-7.273c.06-.06.07-.094.091-.123.042-.063.07-.089.083-.12.024-.063.027-.108.035-.152.008-.042.024-.082.025-.125 0-.064-.017-.104-.025-.146-.009-.045-.011-.089-.028-.131-.02-.052-.048-.077-.066-.107-.045-.064-.055-.097-.081-.124L15.782.197a.768.768 0 0 0-1.06.032c-.284.292-.585.753-.283 1.028L20.11 7H1.03C.617 7 0 7.598 0 8c0 .4.617 1 1.031 1z" fill="#ffffff" fill-rule="evenodd"/></svg>