<svg width="25" height="28" viewBox="0 0 25 28" version="1.1" xmlns="http://www.w3.org/2000/svg" xmlns:xlink="http://www.w3.org/1999/xlink" xmlns:figma="http://www.figma.com/figma/ns">
<title>/helm</title>
<desc>Created using Figma</desc>
<g id="Canvas" transform="translate(-5169 -3618)" figma:type="canvas">
<g id="icon/helm" figma:type="frame">
<g id="Vector" figma:type="vector">
<use xlink:href="#path0_fill" transform="translate(5169.99 3618.5)" fill="#5D7EAC"/>
</g>
</g>
</g>
<defs>
<path id="path0_fill" d="M 0.251675 7.80667L 2.96901 9.39333C 3.18234 9.52 3.27168 9.78533 3.17568 10.016C 2.28634 12.2533 2.28634 14.748 3.17568 16.9853C 3.27034 17.2147 3.18368 17.48 2.96901 17.608L 0.253009 19.1933C 0.0116756 19.3347 -0.0709913 19.6427 0.0676754 19.8853L 0.567675 20.76C 0.703675 21 1.00901 21.0827 1.24901 20.9467C 1.25034 20.9453 1.25168 20.9453 1.25301 20.944L 3.98901 19.3467C 4.20501 19.2227 4.47834 19.276 4.63168 19.472C 6.11701 21.3107 8.23434 22.528 10.5703 22.8853C 10.817 22.9187 11.001 23.128 11.0037 23.3773L 11.0037 26.5013C 11.0037 26.7773 11.2277 27.0013 11.5037 27.0013L 12.5037 27.0013C 12.7797 27.0013 13.0037 26.7773 13.0037 26.5013L 13.0037 23.3773C 13.0063 23.128 13.1903 22.9187 13.437 22.8853C 15.773 22.528 17.8917 21.3107 19.3757 19.472C 19.529 19.276 19.8037 19.2227 20.0183 19.3467L 22.753 20.944C 22.9917 21.0827 23.297 21.0027 23.4357 20.764C 23.437 20.7627 23.437 20.7613 23.4383 20.76L 23.9383 19.8853C 24.077 19.6427 23.9943 19.3347 23.753 19.1933L 21.0383 17.608C 20.8237 17.4813 20.7357 17.216 20.8317 16.9853C 21.721 14.748 21.721 12.2533 20.8317 10.016C 20.737 9.78667 20.825 9.52133 21.0383 9.39333L 23.7557 7.80667C 23.9957 7.66667 24.077 7.36 23.9397 7.11867L 23.4383 6.24133C 23.301 6.00133 22.997 5.91867 22.757 6.056C 22.7557 6.05733 22.7543 6.05733 22.753 6.05867L 20.0183 7.65467C 19.8023 7.77867 19.529 7.72533 19.3757 7.52933C 17.8903 5.69067 15.773 4.47333 13.437 4.116C 13.1903 4.08267 13.0063 3.87333 13.0037 3.624L 13.0037 0.5C 13.0037 0.224 12.7797 0 12.5037 0L 11.5037 0C 11.2277 0 11.0037 0.224 11.0037 0.5L 11.0037 3.624C 11.001 3.87333 10.817 4.08267 10.5703 4.116C 8.23434 4.47333 6.11567 5.69067 4.63168 7.52933C 4.47834 7.72533 4.20501 7.77867 3.98901 7.65467L 1.25034 6.056C 1.01434 5.91867 0.710342 5.99867 0.571675 6.23467C 0.570342 6.236 0.570342 6.23733 0.569009 6.23867L 0.0663421 7.11867C -0.0709912 7.36 0.0116754 7.66667 0.251675 7.80667ZM 6.48101 17.8893L 9.10634 16.3573C 9.48634 16.136 9.70768 16.1373 9.86768 16.2587C 10.1223 16.452 10.401 16.6093 10.6983 16.728C 10.8863 16.808 11.0063 16.9947 11.0037 17.2L 11.0037 20.4867C 11.005 20.692 10.8397 20.86 10.6343 20.8613C 10.6117 20.8613 10.589 20.86 10.5663 20.856C 8.94501 20.5387 7.47434 19.6947 6.38368 18.4533C 6.25034 18.2973 6.26901 18.0627 6.42501 17.9293C 6.44234 17.9147 6.46234 17.9013 6.48101 17.8893ZM 13.0023 20.4867L 13.0023 17.2C 12.9983 16.996 13.1197 16.8093 13.3077 16.728C 13.605 16.6107 13.8837 16.452 14.1383 16.2587C 14.3023 16.14 14.521 16.132 14.693 16.236C 15.3397 16.6133 16.8223 17.48 17.525 17.8893C 17.7037 17.992 17.765 18.2187 17.6623 18.3973C 17.6503 18.4173 17.6383 18.436 17.6223 18.4533C 16.5317 19.6933 15.061 20.5387 13.4397 20.856C 13.237 20.892 13.0437 20.7573 13.0077 20.5547C 13.005 20.532 13.0023 20.5093 13.0023 20.4867ZM 18.5437 16.1507L 15.7023 14.492C 15.5277 14.392 15.4317 14.1947 15.4597 13.9947C 15.5143 13.6667 15.5143 13.3307 15.4597 13.0027C 15.4303 12.8027 15.5263 12.6053 15.7023 12.5053L 18.5437 10.8467C 18.721 10.7413 18.9503 10.8 19.0557 10.9773C 19.0677 10.9973 19.077 11.0173 19.085 11.0387C 19.6383 12.632 19.6383 14.3653 19.085 15.9587C 19.013 16.152 18.7983 16.2507 18.605 16.1787C 18.5837 16.172 18.5623 16.1627 18.5437 16.1507ZM 17.525 9.10933L 14.8997 10.6427C 14.5197 10.864 14.2983 10.8627 14.1383 10.7413C 13.8837 10.548 13.605 10.3907 13.3077 10.272C 13.1197 10.192 12.9983 10.0053 13.0023 9.8L 13.0023 6.51333C 13.001 6.308 13.1663 6.14 13.3717 6.13867C 13.3943 6.13867 13.417 6.14 13.4397 6.144C 15.061 6.46133 16.5317 7.30533 17.6223 8.54667C 17.7557 8.70267 17.737 8.93733 17.581 9.07067C 17.5637 9.08533 17.545 9.09867 17.525 9.10933ZM 11.0037 6.51333L 11.0037 9.8C 11.0077 10.004 10.8863 10.1907 10.6983 10.272C 10.401 10.3907 10.1223 10.548 9.86768 10.7413C 9.70368 10.86 9.48501 10.8693 9.31301 10.764L 6.48101 9.11067C 6.30368 9.008 6.24234 8.78 6.34368 8.60267C 6.35568 8.58267 6.36768 8.564 6.38368 8.54667C 7.47434 7.30667 8.94501 6.46133 10.5663 6.144C 10.769 6.108 10.9623 6.24267 10.9983 6.44533C 11.0023 6.468 11.0037 6.49067 11.0037 6.51333ZM 5.46234 10.8493L 8.30368 12.508C 8.47834 12.608 8.57434 12.8053 8.54634 13.0053C 8.49168 13.3333 8.49168 13.6693 8.54634 13.9973C 8.57568 14.1973 8.47968 14.3933 8.30368 14.4947L 5.46234 16.1533C 5.28501 16.2587 5.05568 16.2 4.95034 16.0227C 4.93834 16.0027 4.92901 15.9827 4.92101 15.9613C 4.36768 14.368 4.36768 12.6347 4.92101 11.0413C 4.99301 10.848 5.20768 10.7493 5.40101 10.8213C 5.42234 10.828 5.44368 10.8373 5.46234 10.8493Z"/>
</defs>
</svg>
