<svg width="1033" height="40" viewBox="0 0 1033 40" version="1.1" xmlns="http://www.w3.org/2000/svg" xmlns:xlink="http://www.w3.org/1999/xlink" xmlns:figma="http://www.figma.com/figma/ns">
<title>Group</title>
<desc>Created using Figma</desc>
<g id="Canvas" transform="translate(-5216 -2944)" figma:type="canvas">
<g id="Group" figma:type="frame">
<g id="Group" figma:type="frame">
<g id="Vector" figma:type="vector">
<use xlink:href="#path0_fill" transform="translate(5327 2948)" fill="#5D7EAC"/>
</g>
</g>
<g id="twitter" figma:type="frame">
<g id="Vector" figma:type="vector">
<use xlink:href="#path1_fill" transform="translate(5216 2948)" fill="#5D7EAC"/>
</g>
</g>
<g id="blend-logo" figma:type="frame">
<g id="Group" figma:type="frame">
<g id="blend-logo-b" figma:type="frame">
<g id="blend-logo-b-top" figma:type="vector">
<use xlink:href="#path2_fill" transform="translate(5725 2948)" fill="#5D7EAC"/>
</g>
<g id="blend-logo-b-left" figma:type="vector">
<use xlink:href="#path3_fill" transform="translate(5725 2964.71)" fill="#5D7EAC"/>
</g>
<g id="blend-logo-b-right" figma:type="vector">
<use xlink:href="#path4_fill" transform="translate(5736.29 2958.82)" fill="#5D7EAC"/>
</g>
<g id="blend-logo-b-bottom" figma:type="vector">
<use xlink:href="#path5_fill" transform="translate(5730.83 2971.35)" fill="#5D7EAC"/>
</g>
</g>
<g id="blend-logo-l" figma:type="vector">
<use xlink:href="#path6_fill" transform="translate(5748.07 2948)" fill="#5D7EAC"/>
</g>
<g id="blend-logo-e" figma:type="vector">
<use xlink:href="#path7_fill" transform="translate(5754.85 2958.01)" fill="#5D7EAC"/>
</g>
<g id="blend-logo-n" figma:type="vector">
<use xlink:href="#path8_fill" transform="translate(5775.37 2958.01)" fill="#5D7EAC"/>
</g>
<g id="blend-logo-d" figma:type="vector">
<use xlink:href="#path9_fill" transform="translate(5795.69 2948)" fill="#5D7EAC"/>
</g>
</g>
</g>
<g id="Group" figma:type="frame">
<g id="Group" figma:type="frame">
<g id="Vector" figma:type="vector">
<use xlink:href="#path10_fill" transform="translate(5585.38 2944)" fill="#5D7EAC"/>
</g>
<g id="Vector" figma:type="vector">
<use xlink:href="#path11_fill" transform="translate(5577 2952.26)" fill="#5D7EAC"/>
</g>
<g id="Vector" figma:type="vector">
<use xlink:href="#path12_fill" transform="translate(5592.68 2952.69)" fill="#5D7EAC"/>
</g>
<g id="Vector" figma:type="vector">
<use xlink:href="#path13_fill" transform="translate(5612.03 2952.69)" fill="#5D7EAC"/>
</g>
<g id="Vector" figma:type="vector">
<use xlink:href="#path14_fill" transform="translate(5637.13 2952.61)" fill="#5D7EAC"/>
</g>
<g id="Vector" figma:type="vector">
<use xlink:href="#path15_fill" transform="translate(5638.84 2952.61)" fill="#5D7EAC"/>
</g>
</g>
</g>
<g id="Group" figma:type="frame">
<g id="Group" figma:type="frame">
<g id="Vector" figma:type="vector">
<use xlink:href="#path16_fill" transform="translate(5885 2948)" fill="#5D7EAC"/>
</g>
<g id="Vector" figma:type="vector">
<use xlink:href="#path17_fill" transform="translate(5901.78 2948)" fill="#5D7EAC"/>
</g>
<g id="Vector" figma:type="vector">
<use xlink:href="#path18_fill" transform="translate(6017.91 2952.98)" fill="#5D7EAC"/>
</g>
<g id="Vector" figma:type="vector">
<use xlink:href="#path19_fill" transform="translate(5950.11 2953.97)" fill="#5D7EAC"/>
</g>
<g id="Vector" figma:type="vector">
<use xlink:href="#path20_fill" transform="translate(5926.55 2954.4)" fill="#5D7EAC"/>
</g>
<g id="Vector" figma:type="vector">
<use xlink:href="#path21_fill" transform="translate(5955.88 2959.5)" fill="#5D7EAC"/>
</g>
<g id="Vector" figma:type="vector">
<use xlink:href="#path22_fill" transform="translate(5992.93 2959.5)" fill="#5D7EAC"/>
</g>
<g id="Vector" figma:type="vector">
<use xlink:href="#path23_fill" transform="translate(5969.09 2959.58)" fill="#5D7EAC"/>
</g>
<g id="Vector" figma:type="vector">
<use xlink:href="#path24_fill" transform="translate(5950.42 2959.84)" fill="#5D7EAC"/>
</g>
<g id="Vector" figma:type="vector">
<use xlink:href="#path25_fill" transform="translate(5977.27 2959.49)" fill="#5D7EAC"/>
</g>
<g id="Vector" figma:type="vector">
<use xlink:href="#path26_fill" transform="translate(6003.48 2959.49)" fill="#5D7EAC"/>
</g>
<g id="Vector" figma:type="vector">
<use xlink:href="#path27_fill" transform="translate(5885 2964.78)" fill="#5D7EAC"/>
</g>
<g id="Vector" figma:type="vector">
<use xlink:href="#path28_fill" transform="translate(5901.78 2964.78)" fill="#5D7EAC"/>
</g>
</g>
</g>
<g id="Group" figma:type="frame">
<g id="Group" figma:type="frame">
<g id="Vector" figma:type="vector">
<use xlink:href="#path29_fill" transform="translate(6107 2944)" fill="#5D7EAC"/>
</g>
<g id="Vector" figma:type="vector">
<use xlink:href="#path30_fill" transform="translate(6163.7 2956.36)" fill="#5D7EAC"/>
</g>
</g>
</g>
</g>
</g>
<defs>
<path id="path0_fill" d="M 151.029 21.7499C 153.343 21.7499 155.225 19.7936 155.225 17.3687C 155.225 14.914 153.343 12.9577 151.029 12.9577C 148.716 12.9577 146.834 14.914 146.834 17.3687C 146.834 19.7936 148.746 21.7499 151.029 21.7499ZM 144.387 10.7782C 146.172 8.98559 148.515 7.99628 150.933 7.99628C 153.514 7.99628 155.723 8.88889 157.508 10.5848C 159.39 12.3775 160.417 14.8322 160.417 17.2497C 160.417 19.9349 159.524 22.159 157.739 23.9517C 155.924 25.7741 153.67 26.7411 151 26.7411C 148.292 26.7411 146.105 25.8112 144.29 23.8921C 142.572 22.0995 141.679 19.8159 141.679 17.324C 141.679 14.8322 142.639 12.5337 144.387 10.7782ZM 112.774 21.7499C 115.087 21.7499 116.969 19.7936 116.969 17.3687C 116.969 14.914 115.087 12.9577 112.774 12.9577C 110.46 12.9577 108.578 14.914 108.578 17.3687C 108.578 19.7936 110.497 21.7499 112.774 21.7499ZM 106.131 10.7782C 107.916 8.98559 110.259 7.99628 112.677 7.99628C 115.258 7.99628 117.467 8.88889 119.252 10.5848C 121.134 12.3775 122.161 14.8322 122.161 17.2497C 122.161 19.9349 121.268 22.159 119.483 23.9517C 117.668 25.7741 115.422 26.7411 112.744 26.7411C 110.036 26.7411 107.857 25.8112 106.034 23.8921C 104.316 22.0995 103.424 19.8159 103.424 17.324C 103.424 14.8322 104.383 12.5337 106.131 10.7782ZM 49.3315 26.2278L 54.5235 26.2278L 54.5235 1.56206L 49.3315 2.64807L 49.3315 26.2278ZM 41.4096 26.2278L 46.5941 26.2278L 46.5941 8.42027L 41.4096 8.42027L 41.4096 26.2278ZM 44.0056 0C 42.2501 0 40.8219 1.42817 40.8219 3.19107C 40.8219 4.95397 42.2501 6.38959 44.0056 6.38959C 45.761 6.38959 47.1892 4.96141 47.1892 3.19851C 47.1892 1.43561 45.761 0 44.0056 0ZM 65.3092 18.7968L 61.9693 8.42027L 56.1897 8.42027L 62.6983 25.1344L 60.1767 32L 65.4282 32L 74.689 8.42027L 69.0804 8.42027L 65.3092 18.7968ZM 9.81125 21.5342C 7.13343 21.5342 5.21432 19.6448 5.21432 17.153C 5.21432 14.7652 7.13343 12.742 9.61041 12.742C 12.0576 12.742 13.9396 14.6685 13.9396 17.2199C 13.947 19.682 12.0651 21.5342 9.81125 21.5342ZM 17.5769 17.2571C 17.5769 15.2934 18.053 13.4486 18.9679 11.8047L 18.9679 1.51743L 13.7462 2.596L 13.7462 10.3543C 12.556 8.83682 10.9047 8.10786 8.755 8.10786C 6.5086 8.10786 4.49279 8.93352 2.84147 10.5625C 0.989307 12.3477 0 14.6388 0 17.1901C 0 19.9795 1.05625 22.3598 3.10925 24.1897C 4.66388 25.5807 6.51604 26.2799 8.6583 26.2799C 10.7708 26.2799 12.3626 25.7146 13.9098 24.1897L 13.9098 26.1832L 18.9679 26.1832L 18.9679 22.8061C 18.0604 21.1474 17.5769 19.2803 17.5769 17.2571ZM 102.434 12.3329C 102.211 11.3808 101.839 10.6295 101.274 9.96746C 100.285 8.80707 98.901 8.26406 97.2273 8.12273C 95.8587 8.00372 94.6908 8.18224 93.5602 8.77731C 92.3403 9.42445 90.9493 10.9419 90.9493 10.9419C 90.9493 10.9419 89.5732 8.09298 86.1218 8.09298C 83.6894 8.09298 82.2018 9.12692 81.205 10.808L 81.205 8.42027L 76.4816 8.42027L 76.4816 26.2278L 81.4356 26.2278L 81.4356 16.848C 81.4356 14.8991 81.8894 12.9577 84.5151 12.9577C 86.7764 12.9577 86.9549 14.8099 86.9549 16.3422L 86.9549 26.2204L 92.08 26.2204L 92.08 16.7885C 92.08 13.7834 93.3817 12.9651 95.1743 12.9651C 96.6248 12.9651 97.5918 13.6197 97.5918 16.3496L 97.5918 26.2278L 102.68 26.2278L 102.68 22.8359C 101.772 21.1622 101.289 19.2878 101.289 17.2794C 101.289 15.5314 101.69 13.8577 102.434 12.3329ZM 130.678 1.56206L 125.389 2.64807L 125.389 8.50953L 123.143 8.50953L 123.143 13.6643L 125.389 13.6643L 125.389 26.2278L 130.678 26.2278L 130.678 13.6643L 133.021 13.6643L 133.021 8.50953L 130.678 8.50953L 130.678 1.56206ZM 137.915 6.38959C 139.671 6.38959 141.099 4.96141 141.099 3.19851C 141.099 1.43561 139.671 0 137.908 0C 136.152 0 134.724 1.42817 134.724 3.19107C 134.724 4.95397 136.152 6.38959 137.915 6.38959ZM 140.504 12.7569L 140.504 8.42027L 135.319 8.42027L 135.319 26.2278L 140.504 26.2278L 140.504 21.9805C 139.879 20.5374 139.544 18.9679 139.544 17.3092C 139.544 15.7173 139.879 14.1776 140.504 12.7569ZM 172.34 8.08554C 169.99 8.08554 168.338 9.01534 167.252 10.808L 167.319 8.42027L 162.365 8.42027L 162.365 26.2278L 167.49 26.2278L 167.49 16.5728C 167.49 14.185 168.576 12.9577 170.629 12.9577C 172.645 12.9577 173.173 14.0883 173.173 16.5728L 173.173 26.2204L 178.395 26.2204L 178.395 14.49C 178.38 10.4063 176.007 8.08554 172.34 8.08554ZM 29.523 21.5862C 31.7694 21.5862 33.6513 19.7266 33.6513 17.272C 33.6513 14.7206 31.7694 12.794 29.3222 12.794C 26.8452 12.794 24.9261 14.8173 24.9261 17.205C 24.9261 19.6969 26.8452 21.5862 29.523 21.5862ZM 33.6216 24.2343C 32.0669 25.7592 30.4751 26.3245 28.3626 26.3245C 26.2129 26.3245 24.3608 25.6253 22.8136 24.2343C 20.768 22.4119 19.7043 20.0242 19.7043 17.2348C 19.7043 14.6834 20.6936 12.3924 22.5458 10.5997C 24.1971 8.97071 26.2129 8.14505 28.4593 8.14505C 30.609 8.14505 32.2603 8.87401 33.4505 10.3989L 33.4505 8.42027L 38.6722 8.42027L 38.6722 26.2278L 33.6216 26.2278L 33.6216 24.2343Z"/>
<path id="path1_fill" d="M 39.3788 3.76471C 37.9294 4.42353 36.3671 4.85647 34.7482 5.06353C 36.4047 4.06588 37.6847 2.48471 38.2871 0.583529C 36.7247 1.52471 34.9929 2.18353 33.1671 2.56C 31.68 0.941177 29.5906 0 27.2188 0C 22.7953 0 19.1812 3.61412 19.1812 8.07529C 19.1812 8.71529 19.2565 9.33647 19.3882 9.92C 12.6871 9.58118 6.72 6.36235 2.74824 1.48706C 2.05176 2.67294 1.65647 4.06588 1.65647 5.53412C 1.65647 8.33882 3.06824 10.8235 5.25176 12.2353C 3.91529 12.2353 2.67294 11.8588 1.58118 11.2941C 1.58118 11.2941 1.58118 11.2941 1.58118 11.3506C 1.58118 15.2659 4.36706 18.5412 8.05647 19.2753C 7.37882 19.4635 6.66353 19.5576 5.92941 19.5576C 5.42118 19.5576 4.91294 19.5012 4.42353 19.4071C 5.44 22.5882 8.39529 24.96 11.9529 25.0165C 9.20471 27.2 5.72235 28.48 1.92 28.48C 1.28 28.48 0.64 28.4424 -7.18061e-08 28.3671C 3.57647 30.6635 7.83059 32 12.3859 32C 27.2188 32 35.3694 19.6894 35.3694 9.01647C 35.3694 8.65882 35.3694 8.32 35.3506 7.96235C 36.9318 6.83294 38.2871 5.40235 39.3788 3.76471Z"/>
<path id="path2_fill" d="M 9.9464 10.7817C 9.21981 10.7031 5.84216 10.5853 3.142 12.3625L 3.142 0.982564C 3.142 0.805826 3.02418 0.648726 2.84744 0.599633L 0.490938 0.0105074C 0.284744 -0.0385863 0.0687313 0.0890575 0.00981875 0.295251C 0 0.334526 0 0.363982 0 0.393439L 0 19.3436C 0 19.4516 0.0883688 19.54 0.196375 19.54C 0.245469 19.54 0.294563 19.5204 0.333838 19.4811L 3.90786 15.858C 5.60651 14.1593 6.51965 13.4524 7.79609 13.4524C 8.94488 13.4524 12.3716 14.7485 14.0605 15.3965C 14.1586 15.4358 14.2765 15.3867 14.3157 15.2787C 14.3452 15.2099 14.3256 15.1216 14.2666 15.0725C 12.9509 13.7568 10.4275 11.2137 10.0446 10.8308C 10.0249 10.8111 9.99549 10.7915 9.9464 10.7817Z"/>
<path id="path3_fill" d="M 0.0589125 4.13369C 0.461481 3.73113 2.90635 1.26662 4.11406 0.0589119C 4.19261 -0.0196381 4.32025 -0.0196381 4.38898 0.0589119C 4.43808 0.108006 4.45771 0.186556 4.43808 0.255287C 3.41693 3.26964 2.84744 5.43959 2.84744 7.43279C 2.84744 9.75002 6.34291 12.8527 8.6405 14.9343C 8.71905 15.0031 8.72887 15.1307 8.65032 15.2092C 8.61104 15.2583 8.55213 15.278 8.49322 15.278C 6.35273 15.1405 3.89804 14.2274 2.21904 12.2538C 0.972056 10.7908 0.00981875 9.50455 0 4.27116C 0 4.22206 0.0196375 4.17297 0.0589125 4.13369Z"/>
<path id="path4_fill" d="M 8.42449 11.4094C 8.02192 11.7923 5.57705 14.1783 4.34971 15.3565C 4.27116 15.4351 4.14351 15.4253 4.07478 15.3467C 4.02569 15.2976 4.00605 15.2191 4.03551 15.1503C 5.06648 12.1556 5.67524 10.0446 5.71451 8.43431C 5.76361 6.79458 5.24321 5.5476 3.87841 4.17297L 0.0589124 0.333837C -0.0196377 0.255287 -0.0196377 0.137463 0.0589124 0.0589127C 0.0981874 0.0196377 0.1571 2.99645e-07 0.216012 2.99645e-07C 2.24849 0.1571 4.69336 1.17825 6.37237 3.142C 7.61935 4.59518 9.01361 7.23642 8.4834 11.3014C 8.47358 11.3407 8.45395 11.3799 8.42449 11.4094Z"/>
<path id="path5_fill" d="M 4.32154 8.59141C 3.89933 8.18884 1.39555 5.78324 0.0602013 4.50681C -0.0183487 4.42826 -0.0183486 4.31043 0.0503827 4.23188C 0.109295 4.17297 0.187845 4.15333 0.266395 4.18279C 1.90613 4.81119 5.10704 6.0189 6.24601 6.0189C 7.52245 6.0189 8.44542 5.31195 10.1342 3.6133L 13.6494 0.0589125C 13.7279 -0.0196375 13.8457 -0.0196375 13.9243 0.0589125C 13.9636 0.0981875 13.9832 0.147281 13.9832 0.206194C 13.777 7.29533 9.03454 8.6405 4.44918 8.65032C 4.40991 8.65032 4.36081 8.63068 4.32154 8.59141Z"/>
<path id="path6_fill" d="M 2.65106 0.00981875L 0.294563 0.598944C 0.117825 0.648038 0 0.805138 0 0.981875L 0 31.6066C 0 31.8226 0.176738 31.9993 0.39275 31.9993L 2.74925 31.9993C 2.96526 31.9993 3.142 31.8226 3.142 31.6066L 3.142 0.39275C 3.142 0.176738 2.96526 1.46311e-10 2.74925 1.46311e-10C 2.71979 1.46311e-10 2.68052 0.00981875 2.65106 0.00981875Z"/>
<path id="path7_fill" d="M 17.281 9.426C 17.281 1.571 14.0408 0 8.54231 0C 3.04381 0 0 1.571 0 9.426L 0 12.568C 0 20.423 3.9275 21.994 9.426 21.994L 14.4237 21.994C 14.6398 21.994 14.8165 21.8173 14.8165 21.6013C 14.8165 21.5718 14.8165 21.5325 14.8067 21.5031L 14.2176 19.1466C 14.1685 18.9698 14.0114 18.852 13.8346 18.852L 9.426 18.852C 5.11557 18.852 3.19109 18.3218 3.142 12.7644C 3.142 12.6564 3.23037 12.568 3.33838 12.568L 16.8883 12.568C 17.1043 12.568 17.281 12.3913 17.281 12.1753L 17.281 9.426ZM 3.33838 9.426C 3.23037 9.426 3.142 9.33763 3.142 9.22963C 3.16164 3.67221 4.23188 3.142 8.54231 3.142C 12.8527 3.142 14.1095 3.67221 14.139 9.22963C 14.139 9.33763 14.0506 9.426 13.9426 9.426L 3.33838 9.426Z"/>
<path id="path8_fill" d="M 7.855 0L 0.39275 0C 0.176738 0 0 0.176738 0 0.39275L 0 21.6013C 0 21.8173 0.176738 21.994 0.39275 21.994L 2.74925 21.994C 2.96526 21.994 3.142 21.8173 3.142 21.6013L 3.142 3.33838C 3.142 3.23037 3.23037 3.142 3.33838 3.142L 7.855 3.142C 12.2145 3.142 14.139 4.46753 14.139 10.2115L 14.139 21.6013C 14.139 21.8173 14.3157 21.994 14.5318 21.994L 16.8883 21.994C 17.1043 21.994 17.281 21.8173 17.281 21.6013L 17.281 10.2115C 17.281 2.3565 13.3535 0 7.855 0Z"/>
<path id="path9_fill" d="M 14.139 0.981875L 14.139 9.80893C 14.139 9.91694 14.0506 10.0053 13.9426 10.0053L 9.426 10.0053C 3.9275 10.0053 0 12.3618 0 20.2168L 0 21.7878C 0 29.6428 3.9275 31.9993 9.426 31.9993L 16.8883 31.9993C 17.1043 31.9993 17.281 31.8226 17.281 31.6066L 17.281 0.39275C 17.281 0.176738 17.1043 1.46311e-10 16.8883 1.46311e-10C 16.8588 1.46311e-10 16.8195 0 16.7901 0.00981875L 14.4336 0.598944C 14.2568 0.648038 14.139 0.805138 14.139 0.981875ZM 14.139 28.6609C 14.139 28.7689 14.0506 28.8573 13.9426 28.8573L 9.426 28.8573C 5.06648 28.8573 3.142 27.5318 3.142 21.7878L 3.142 20.2168C 3.142 14.4728 5.06648 13.1473 9.426 13.1473L 13.9426 13.1473C 14.0506 13.1473 14.139 13.2357 14.139 13.3437L 14.139 28.6609Z"/>
<path id="path10_fill" d="M 6.4415 18.9092C 7.48802 17.7396 8.57586 16.8162 9.90953 15.7077L 9.95043 14.8459C 8.26765 16.1799 6.7493 17.5549 5.43548 18.9501L 6.4415 18.9092ZM 2.68633 24.0191C 1.06511 26.9947 0.428848 29.9293 1.57824 32.1868C 5.19004 39.2464 21.8741 39.1435 37.9223 32.4124C 41.965 30.7296 45.6181 28.7597 48.7783 26.646C 58.1772 20.3458 61.8303 13.225 59.1419 7.95071C 55.5504 0.891134 40.9594 0.152411 24.9112 6.86288C 23.1871 7.58095 21.5456 8.36098 19.9653 9.16126L 18.611 9.16126C 20.9094 7.9094 23.4746 6.61664 26.0399 5.52881C 44.2836 -2.10507 62.4046 -1.79727 66.4676 6.22662C 69.5456 12.2393 64.867 20.6536 54.1134 27.8359C 50.5425 30.2165 46.0689 32.638 41.5337 34.5463C 23.29 42.1802 5.00496 41.7084 0.92133 33.7052C -0.51521 30.8527 -0.268969 27.5281 1.6398 24.0187L 2.68633 24.0187L 2.68633 24.0191Z"/>
<path id="path11_fill" d="M 16.196 10.1785C 14.8826 15.1657 10.8601 17.115 6.81738 17.115C 1.11213 17.115 -0.796237 13.6469 0.291597 8.49572C 1.215 3.42712 4.97058 3.02812e-07 10.4701 3.02812e-07C 14.595 3.02812e-07 17.7144 1.66213 16.6472 7.26451L 10.7163 7.26451C 11.1063 4.59677 10.511 4.24766 9.71071 4.24766C 8.04859 4.24766 7.5148 5.95109 6.96076 8.55728C 6.44762 11.0197 6.18072 12.8669 7.80194 12.8669C 8.64354 12.8669 9.3207 12.3744 10.121 10.1785L 16.196 10.1785Z"/>
<path id="path12_fill" d="M -1.73035e-07 16.2735L 8.02389 16.2735C 13.0313 16.2735 16.8894 13.2363 17.9359 8.31113C 18.9622 3.48877 17.6281 -0.0205646 11.1019 9.04466e-05L 3.44737 9.04466e-05L -1.73035e-07 16.2735ZM 8.9886 3.6937L 9.6042 3.6937C 10.6507 3.6937 11.1845 4.06307 11.451 4.71957C 11.7382 5.39674 11.615 6.54613 11.287 8.12644C 10.9585 9.70676 10.5689 10.8557 9.99422 11.5329C 9.46043 12.1894 8.76302 12.5794 7.71649 12.5794L 7.10089 12.5794L 8.9886 3.6937Z"/>
<path id="path13_fill" d="M -1.11237e-06 -3.08992e-08L 5.78706 -3.08992e-08L 4.98678 10.2198L 5.02809 10.2198L 8.72171 -3.08992e-08L 15.3913 -3.08992e-08L 14.7348 10.2198L 14.7757 10.2198L 18.3259 -3.08992e-08L 24.0927 -3.08992e-08L 17.1154 16.2738L 10.1173 16.2738L 10.8561 5.70526L 10.8152 5.70526L 7.05958 16.2738L 0.0615593 16.2738L -1.11237e-06 -3.08992e-08Z"/>
<path id="path14_fill" d="M 2.47193e-06 3.27531e-07L 1.53941 3.27531e-07L 1.53941 0.307801L 0.944058 0.307801L 0.944058 1.90877L 0.595355 1.90877L 0.595355 0.307801L 2.47193e-06 0.307801L 2.47193e-06 3.27531e-07Z"/>
<path id="path15_fill" d="M -9.88773e-08 3.27531e-07L 0.471824 3.27531e-07L 1.00562 1.4981L 1.51876 3.27531e-07L 1.99058 3.27531e-07L 1.99058 1.90877L 1.66213 1.90877L 1.66213 0.451577L 1.12874 1.90877L 0.861845 1.90877L 0.328458 0.451577L 0.328458 1.90877L -9.88773e-08 1.90877L -9.88773e-08 3.27531e-07Z"/>
<path id="path16_fill" d="M 0 0L 15.2229 0C 15.2219 5.07429 15.2229 10.1486 15.2219 15.2229C 10.1486 15.2229 5.07429 15.2229 0 15.2229L 0 0Z"/>
<path id="path17_fill" d="M 0.000228571 0L 15.2231 0C 15.2231 5.07429 15.224 10.1486 15.2222 15.2229C 10.1488 15.2219 5.07451 15.2229 0.00114236 15.2229C -0.000686216 10.1486 0.000228571 5.07429 0.000228571 0Z"/>
<path id="path18_fill" d="M 4.36571 0.817084C 5.76914 -0.0962877 7.58218 -0.181316 9.16389 0.253884C 9.1776 1.19377 9.16571 2.13457 9.17029 3.07537C 8.41874 2.7444 7.53462 2.52863 6.74377 2.8532C 6.11657 3.10188 5.74354 3.74554 5.64571 4.3892C 5.52777 5.20566 5.60457 6.03308 5.58446 6.85411C 7.18994 6.85777 8.79542 6.85503 10.4009 6.85594C 10.4128 5.81366 10.3881 4.77045 10.4146 3.72817C 11.5063 3.41731 12.5861 3.06897 13.6722 2.74165C 13.6814 4.11491 13.6594 5.48908 13.6841 6.86326C 14.7694 6.84771 15.8555 6.8596 16.9417 6.85594L 16.9417 9.52931C 15.8519 9.48451 14.7611 9.51743 13.6713 9.51377C 13.6759 11.0507 13.6722 12.5876 13.6731 14.1254C 13.6905 14.9766 13.6274 15.8324 13.7271 16.6809C 13.7874 17.181 13.9694 17.735 14.4384 17.9938C 15.2238 18.4335 16.2203 18.2415 16.9417 17.7588L 16.9417 20.4587C 16.0009 20.8674 14.9495 20.9917 13.9319 20.9195C 12.9664 20.8482 11.9662 20.4971 11.3362 19.7291C 10.6085 18.8614 10.421 17.6866 10.4064 16.5876C 10.3982 14.2287 10.4073 11.8699 10.4027 9.51011C 8.79634 9.5092 7.18994 9.50828 5.58446 9.51103C 5.58263 13.213 5.58354 16.9149 5.58354 20.6169C 4.4864 20.6169 3.38834 20.6169 2.2912 20.6169C 2.2912 16.9158 2.28663 13.2157 2.29303 9.51468C 1.5296 9.50006 0.765254 9.51834 0.00182589 9.5028C 0.00456875 8.62417 0.00822411 7.74463 -4.46429e-06 6.86508C 0.759767 6.84771 1.52046 6.85503 2.28206 6.86051C 2.33783 5.69205 2.15954 4.48977 2.5088 3.35148C 2.80412 2.32383 3.46057 1.39674 4.36571 0.817084Z"/>
<path id="path19_fill" d="M 1.67097 0.023304C 2.33474 -0.0772674 3.05337 0.149475 3.49314 0.66879C 4.0088 1.23748 4.10389 2.14262 3.72171 2.8073C 3.29931 3.55702 2.35394 3.90536 1.53017 3.72525C 0.675311 3.57165 -0.0369143 2.77713 0.00148567 1.89119C -0.0232 0.958618 0.756681 0.127533 1.67097 0.023304Z"/>
<path id="path20_fill" d="M 0.00105573 0.00186072C 1.5974 0.00186072 3.19283 0.00186072 4.78917 0.00186072C 6.27946 3.78609 7.78071 7.56666 9.27282 11.3509C 9.65408 12.2972 10.0107 13.2544 10.4102 14.1934C 12.3275 9.46472 14.2721 4.74792 16.1748 0.0128324C 17.7099 -0.0118533 19.2459 0.00734612 20.7819 0.00368898C 20.7782 6.40277 20.78 12.8019 20.7809 19.2009C 19.6728 19.1982 18.5656 19.2101 17.4584 19.1945C 17.4703 14.4723 17.4575 9.74997 17.4639 5.02677C 17.4657 4.81466 17.4584 4.60255 17.4438 4.39043C 17.3789 4.48917 17.3213 4.59157 17.271 4.69763C 15.3684 9.53146 13.4292 14.3516 11.5375 19.19C 10.7494 19.2183 9.96037 19.1918 9.17134 19.2046C 7.20837 14.3708 5.27008 9.52598 3.31717 4.68849C 3.26597 4.58792 3.21111 4.49009 3.15168 4.39592C 3.11145 6.46495 3.14528 8.5358 3.13431 10.6048C 3.13523 13.4702 3.13248 16.3356 3.13523 19.2009C 2.0902 19.2037 1.04517 19.2009 0.00105573 19.2019C 0.000141441 12.8019 -0.000772845 6.40186 0.00105573 0.00186072Z"/>
<path id="path21_fill" d="M 4.96535 0.330856C 6.55438 -0.121715 8.26775 -0.103431 9.85586 0.345484C 10.1832 0.436912 10.5004 0.563998 10.7948 0.736798C 10.7766 1.78548 10.7948 2.83508 10.7848 3.88468C 9.72329 3.07371 8.37655 2.55988 7.02706 2.72994C 5.95552 2.82686 4.93335 3.38274 4.29244 4.24857C 3.46866 5.32194 3.27849 6.74731 3.4202 8.06023C 3.52626 9.08788 3.9514 10.1146 4.75049 10.7958C 5.58066 11.5336 6.74455 11.7951 7.83072 11.7128C 8.90409 11.5894 9.91712 11.135 10.7848 10.5005C 10.7939 11.4943 10.7802 12.4881 10.7921 13.4819C 9.44626 14.2829 7.83255 14.4895 6.29198 14.4136C 4.71575 14.3304 3.14409 13.7334 2.00306 12.6253C 0.76329 11.4303 0.0903776 9.72606 0.0108347 8.01908C -0.0696224 6.24446 0.29152 4.39303 1.31278 2.91097C 2.16855 1.64651 3.50706 0.751427 4.96535 0.330856Z"/>
<path id="path22_fill" d="M 3.8805 0.118804C 5.40279 -0.149082 6.99638 0.0474901 8.4373 0.593319C 8.43913 1.60269 8.4373 2.61115 8.43821 3.6196C 7.43159 2.92749 6.20187 2.55538 4.98038 2.59835C 4.36507 2.62212 3.6885 2.88269 3.40781 3.46783C 3.18473 4.04658 3.33924 4.80543 3.88507 5.15195C 4.81855 5.7764 5.93215 6.04155 6.89946 6.60109C 7.66106 7.02898 8.39981 7.58852 8.78564 8.39492C 9.51066 9.90532 9.20346 11.9012 7.92895 13.0276C 6.71204 14.165 4.95935 14.4795 3.34747 14.4191C 2.20278 14.3451 1.05261 14.1193 0.000267905 13.6511C 0.00483933 12.5897 -0.00612674 11.5291 0.00575898 10.4685C 0.890788 11.1113 1.91204 11.5711 2.99272 11.7577C 3.74518 11.8802 4.56348 11.8857 5.26473 11.5492C 5.93582 11.2155 6.0565 10.2619 5.65787 9.67858C 5.28484 9.22875 4.73719 8.98098 4.22061 8.73778C 3.25056 8.30166 2.23113 7.93686 1.37902 7.28315C 0.780161 6.81595 0.326668 6.15766 0.149297 5.41526C -0.114017 4.32086 -0.0317334 3.08749 0.604609 2.13115C 1.33147 1.01663 2.5941 0.34829 3.8805 0.118804Z"/>
<path id="path23_fill" d="M 4.94903 0.468643C 5.85783 -0.0771855 7.01257 -0.122901 8.00457 0.210814C 8 1.30887 8.00457 2.40693 8.00183 3.50498C 7.35268 3.08441 6.54263 2.9043 5.77646 2.98201C 4.84206 3.08807 4.10149 3.80579 3.71749 4.62864C 3.30057 5.49996 3.22194 6.48556 3.24846 7.43824C 3.24846 9.63161 3.24937 11.825 3.24846 14.0184C 2.16594 14.0184 1.08434 14.0184 0.00274286 14.0184C 0 9.43413 0.00639732 4.84899 -2.67857e-06 0.264758C 1.08343 0.251043 2.16686 0.256528 3.25029 0.262014C 3.24572 1.04921 3.25028 1.83641 3.24754 2.62453C 3.59954 1.76784 4.12343 0.935843 4.94903 0.468643Z"/>
<path id="path24_fill" d="M -1.78571e-06 0.00696144C 1.09166 0.00239002 2.18423 -0.00858024 3.27589 0.0124483C 3.26309 4.59576 3.27497 9.17999 3.2704 13.7633C 2.18057 13.7633 1.09074 13.7633 0.00182857 13.7633C -0.000914286 9.17816 0.00274107 4.59302 -1.78571e-06 0.00696144Z"/>
<path id="path25_fill" d="M 13.466 3.55718C 12.8946 2.28632 11.8633 1.22483 10.5906 0.650663C 9.12406 -0.016765 7.45732 -0.106365 5.87743 0.0947784C 4.21801 0.30415 2.60245 1.08495 1.5492 2.40792C 0.587368 3.58918 0.11926 5.10689 0.0296602 6.61272C -0.102911 8.38735 0.193318 10.2708 1.2356 11.7519C 2.12337 13.0301 3.52497 13.9087 5.03903 14.2324C 6.3044 14.4984 7.62829 14.4993 8.89366 14.236C 10.3739 13.9316 11.7563 13.1124 12.6733 11.9037C 13.5693 10.7654 14.0191 9.32998 14.1206 7.89729C 14.2239 6.42986 14.0758 4.91032 13.466 3.55718ZM 10.2861 9.87306C 9.9716 10.5807 9.3956 11.1787 8.66874 11.4621C 7.81845 11.7885 6.86303 11.8077 5.98531 11.58C 5.09206 11.3451 4.33412 10.6996 3.92178 9.87763C 3.39149 8.81889 3.31195 7.59466 3.42166 6.43352C 3.52132 5.37752 3.88886 4.29135 4.69343 3.56266C 5.27674 3.01775 6.07218 2.75169 6.85938 2.70781C 7.84863 2.64289 8.90189 2.92266 9.6132 3.64221C 10.3739 4.39009 10.6683 5.47535 10.7497 6.51032C 10.8082 7.64312 10.7615 8.82346 10.2861 9.87306Z"/>
<path id="path26_fill" d="M 13.6254 3.9547C 13.1188 2.58875 12.1049 1.4075 10.7975 0.753782C 9.29803 -0.00324681 7.55358 -0.113876 5.91061 0.0900102C 4.58581 0.260067 3.28386 0.762924 2.27266 1.6507C 1.03838 2.71401 0.314263 4.27744 0.101235 5.87652C -0.101737 7.47561 -0.0331623 9.15973 0.618723 10.6564C 1.24409 12.1248 2.47838 13.317 3.96318 13.9012C 5.42878 14.4781 7.05803 14.543 8.60043 14.2934C 10.1776 14.0329 11.6715 13.2036 12.648 11.9273C 13.6912 10.6089 14.1401 8.90281 14.1374 7.24064C 14.1602 6.12795 14.0212 4.99972 13.6254 3.9547ZM 10.6557 8.61938C 10.5296 9.3435 10.2791 10.0658 9.80455 10.639C 9.32638 11.215 8.61506 11.5661 7.88089 11.674C 7.09277 11.792 6.2626 11.7353 5.52569 11.418C 4.73026 11.0816 4.11403 10.3931 3.78946 9.60133C 3.39906 8.65778 3.32134 7.61275 3.39906 6.60338C 3.47403 5.62601 3.75106 4.62304 4.39655 3.86327C 4.98535 3.15378 5.88866 2.76155 6.79929 2.71035C 7.72912 2.64544 8.72203 2.8603 9.43701 3.48841C 10.0962 4.03515 10.461 4.85435 10.6283 5.67904C 10.8167 6.64635 10.8148 7.6475 10.6557 8.61938Z"/>
<path id="path27_fill" d="M 0 5.02232e-07C 5.07429 0.00182907 10.1486 -0.000914788 15.2229 0.00182807C 15.2238 5.07611 15.2229 10.1495 15.2229 15.2238L 0 15.2238L 0 5.02232e-07Z"/>
<path id="path28_fill" d="M 0.000913784 0.00114236C 5.07429 -0.000686216 10.1486 0.000228571 15.2229 0.000228571C 15.2229 5.07451 15.2229 10.1488 15.2229 15.2231L 0 15.2231C 0.000914286 10.1488 -0.000914788 5.07451 0.000913784 0.00114236Z"/>
<path id="path29_fill" d="M 44.0179 34.5958L 44.0179 33.566L 44.475 33.566C 44.5664 33.566 44.6366 33.5747 44.684 33.5932C 44.7324 33.6116 44.7702 33.6452 44.7992 33.6917C 44.8273 33.7383 44.8415 33.79 44.8415 33.8472C 44.8415 33.9203 44.8176 33.9817 44.7711 34.0319C 44.7236 34.0818 44.6498 34.1135 44.5513 34.1275C 44.5875 34.1452 44.6147 34.1619 44.6341 34.1785C 44.6735 34.2154 44.7112 34.2611 44.7466 34.3155L 44.9259 34.5958L 44.7544 34.5958L 44.6181 34.3814C 44.5787 34.32 44.5452 34.2726 44.5198 34.2399C 44.4944 34.2075 44.4705 34.1837 44.4503 34.1707C 44.43 34.1583 44.4091 34.1486 44.388 34.1434C 44.3729 34.1407 44.3475 34.1389 44.3124 34.1389L 44.1543 34.1389L 44.1543 34.5958L 44.0179 34.5958ZM 44.1543 34.0204L 44.4478 34.0204C 44.5092 34.0204 44.5585 34.0143 44.5936 34.001C 44.6287 33.9887 44.655 33.9677 44.6735 33.9396C 44.6919 33.9115 44.7009 33.8807 44.7009 33.8472C 44.7009 33.7981 44.6831 33.7585 44.648 33.7268C 44.6129 33.6953 44.5567 33.6793 44.4802 33.6793L 44.1543 33.6793L 44.1543 34.0204ZM 44.4723 33.0081C 43.8818 33.0081 43.4038 33.4922 43.4038 34.0827C 43.4038 34.6723 43.8818 35.1512 44.4723 35.1512C 45.062 35.1512 45.5409 34.6723 45.5409 34.0827C 45.5409 33.4922 45.062 33.0081 44.4723 33.0081ZM 44.4723 33.233C 44.9398 33.233 45.3159 33.6143 45.3159 34.0827C 45.3159 34.5502 44.9398 34.9263 44.4723 34.9263C 44.004 34.9263 43.6287 34.5502 43.6287 34.0827C 43.6287 33.6143 44.004 33.233 44.4723 33.233ZM 28.3377 39.9676C 28.3377 39.8823 29.7525 37.7797 31.387 35.4369C 31.9705 34.6003 32.1753 34.1214 32.2333 33.4571C 32.2754 32.9755 32.4828 31.9949 32.6945 31.2777C 32.9064 30.5608 33.0373 29.9325 32.9862 29.8814C 32.9354 29.8296 32.546 29.9104 32.1224 30.0598C 31.1953 30.3869 30.5821 30.4008 29.5302 30.1196C 28.8605 29.9403 28.611 29.9561 27.9283 30.2163C 27.169 30.5063 27.0732 30.5072 26.365 30.2233C 25.6567 29.9394 25.5012 29.9403 23.8095 30.2382C 20.6471 30.7936 19.6251 30.4825 17.5152 28.32C 16.2075 26.9817 15.7198 26.6881 15.4703 27.0924C 15.4089 27.1916 15.1698 27.2726 14.9388 27.2726C 14.6304 27.2726 14.3622 27.0309 13.9386 26.37C 13.6205 25.8744 13.1328 25.3069 12.8552 25.1091C 11.3376 24.0282 9.62144 24.812 9.62144 26.5862C 9.62144 27.3164 11.0837 29.5212 11.8218 29.9025C 12.7963 30.4069 12.2471 31.1618 11.0229 30.9974C 10.3894 30.9121 10.1092 30.7225 9.25859 29.8042C 8.34908 28.8209 8.17766 28.7127 7.53968 28.7163C 7.15051 28.7181 6.49926 28.8709 6.09321 29.0556C 5.0485 29.53 3.68369 29.7919 2.25768 29.7919L 1.03008 29.7919L 0.749787 28.7566C 0.110907 26.4042 -0.000671837 25.485 3.03612e-06 22.5932C 3.03612e-06 20.3805 0.0852619 19.2337 0.332265 18.0941C 1.67054 11.934 5.07662 6.95347 10.2446 3.60003C 12.7796 1.95514 15.1075 0.989393 18.0794 0.350513C 20.2032 -0.106376 24.9573 -0.118748 27.0224 0.325993C 34.0548 1.84176 39.8783 6.2768 42.9107 12.4253C 44.6084 15.8681 45.2543 18.6697 45.2543 22.5932C 45.2543 26.4281 44.6165 29.2637 43.0074 32.5809C 41.8397 34.9895 42.0014 34.8658 40.3001 34.6514C 38.7604 34.4579 36.743 34.6215 35.4477 35.0457C 34.8693 35.2356 34.7121 35.3832 34.6383 35.8104C 34.56 36.263 34.3913 36.3991 33.4697 36.7559C 32.6938 37.0564 32.0655 37.494 31.2201 38.3209C 30.5751 38.9528 29.8852 39.5485 29.6874 39.6452C 29.2227 39.8711 28.3377 40.0828 28.3377 39.9676ZM 32.6567 28.2698C 36.6665 27.6593 39.4416 26.022 40.6015 23.5826C 41.5945 21.4938 41.1621 19.5738 39.3975 18.2346C 38.5506 17.5924 36.3862 16.6539 35.7507 16.6539C 35.5759 16.6539 35.2718 16.9807 35.039 17.4192C 34.6849 18.0844 33.6919 18.9939 33.3185 18.9939C 33.2499 18.9939 33.437 18.537 33.7349 17.9789C 34.0539 17.3796 34.2764 16.6926 34.2764 16.3032C 34.2764 14.5606 32.3984 9.4649 30.8878 7.11162C 30.1893 6.02192 29.8413 5.66694 29.0582 5.24244C 27.7042 4.50773 26.0863 4.4164 23.9758 4.95517C 22.7086 5.27754 22.1208 5.33378 20.9177 5.24694C 16.0188 4.89263 16.2147 4.89016 15.4053 5.30408C 14.3728 5.83026 14.0477 6.44642 13.4088 9.09057C 12.7164 11.9525 12.7007 12.8366 13.3281 13.5825C 13.9676 14.3436 16.0267 15.2857 18.0794 15.7574C 20.5364 16.3225 22.2112 16.8208 22.6769 17.1265C 22.9 17.2725 23.1787 17.6511 23.2973 17.9676C 23.8122 19.3462 24.0898 19.9025 24.4036 20.1864C 24.5872 20.3533 24.7384 20.5888 24.7384 20.7101C 24.7384 22.0151 15.4458 19.1212 13.0502 17.0703C 12.0125 16.1828 11.7147 15.5325 11.8438 14.4421L 11.9484 13.5535L 9.57038 13.6318C 7.56083 13.6977 7.05895 13.7733 6.33594 14.1222C 3.85173 15.3208 3.96938 17.3224 6.67585 19.8937C 10.632 23.6512 18.7392 27.3146 25.1768 28.2549C 27.3904 28.5782 30.5882 28.5845 32.6567 28.2698ZM 15.8447 10.8839C 15.1952 10.2205 14.9597 9.8426 14.9597 9.4577C 14.9597 8.55877 15.604 8.09221 16.1319 8.60804C 16.9265 9.38391 17.205 9.45613 18.9844 9.33915C 20.8421 9.217 21.9194 9.42531 22.119 9.94451C 22.2998 10.4156 21.9817 10.5616 20.3922 10.7373C 18.6796 10.9253 17.8439 11.1591 17.5319 11.5343C 17.1654 11.9763 16.7647 11.8216 15.8447 10.8839ZM 25.9529 8.05014C 25.1303 7.98153 25.0828 7.76354 25.8447 7.54556C 26.5416 7.34535 26.9292 6.82165 26.5531 6.58702C 26.1531 6.33731 24.7762 6.17917 24.1672 6.31279C 23.8026 6.39265 23.6532 6.37083 23.7288 6.24778C 23.9195 5.94026 25.8263 5.62735 26.9099 5.72498C 28.039 5.82778 28.9539 6.22573 29.1329 6.6932C 29.4353 7.48055 27.7508 8.19861 25.9529 8.05014ZM 25.3192 34.4703C 24.9951 34.2726 24.5267 34.1108 24.2788 34.1108C 23.7517 34.1108 23.5214 33.6829 23.8403 33.2989C 24.1197 32.9624 25.0477 32.9633 25.6382 33.3007C 26.2692 33.6618 26.7877 33.631 27.1681 33.211C 27.6066 32.7269 27.7973 32.7586 27.7973 33.3147C 27.7973 33.8991 26.8921 34.8314 26.3273 34.8305C 26.0969 34.8298 25.6427 34.668 25.3192 34.4703Z"/>
<path id="path30_fill" d="M 82.8222 22.5354L 82.8222 21.5046L 83.2791 21.5046C 83.3704 21.5046 83.4409 21.5143 83.4883 21.5327C 83.5358 21.5512 83.5745 21.5838 83.6026 21.6304C 83.6314 21.6778 83.6456 21.7296 83.6456 21.7858C 83.6456 21.8587 83.6217 21.9212 83.5745 21.9712C 83.527 22.0213 83.4539 22.0531 83.3556 22.0661C 83.3916 22.0836 83.4188 22.1014 83.4373 22.1181C 83.4778 22.1541 83.5155 22.1997 83.5506 22.2551L 83.7299 22.5354L 83.5585 22.5354L 83.4224 22.321C 83.3819 22.2596 83.3495 22.2121 83.3239 22.1786C 83.2976 22.1462 83.2748 22.1232 83.2546 22.1102C 83.2344 22.0969 83.2132 22.0881 83.1921 22.083C 83.1772 22.0794 83.1518 22.0776 83.1165 22.0776L 82.9583 22.0776L 82.9583 22.5354L 82.8222 22.5354ZM 82.9583 21.9599L 83.251 21.9599C 83.3133 21.9599 83.3626 21.9527 83.3977 21.9406C 83.433 21.9273 83.4593 21.9071 83.4778 21.878C 83.4962 21.8499 83.505 21.8193 83.505 21.7858C 83.505 21.7374 83.4874 21.6972 83.4523 21.6655C 83.4161 21.6346 83.3608 21.6189 83.2843 21.6189L 82.9583 21.6189L 82.9583 21.9599ZM 83.2755 20.9476C 82.6859 20.9476 82.207 21.4317 82.207 22.0213C 82.207 22.6109 82.6859 23.0899 83.2755 23.0899C 83.866 23.0899 84.3441 22.6109 84.3441 22.0213C 84.3441 21.4317 83.866 20.9476 83.2755 20.9476ZM 83.2755 21.1726C 83.7439 21.1726 84.1191 21.553 84.1191 22.0213C 84.1191 22.4897 83.7439 22.8649 83.2755 22.8649C 82.8081 22.8649 82.4319 22.4897 82.4319 22.0213C 82.4319 21.553 82.8081 21.1726 83.2755 21.1726ZM 33.6539 22.8289C 34.9827 22.5477 35.8526 22.067 36.7709 21.1082L 37.5592 20.2867L 37.5301 22.7192L 41.1796 22.7533L 41.0863 1.02288L 37.1725 3.56989e-07L 37.037 8.4818L 36.3104 7.85957C 35.879 7.49042 35.1611 7.11879 34.5441 6.94557C 30.9931 5.95013 27.574 7.86137 26.2145 11.6031C 25.6742 13.0898 25.6267 16.5247 26.1266 17.9923C 26.9862 20.517 28.8061 22.3061 31.0529 22.8359C 32.0099 23.0618 32.5653 23.06 33.6539 22.8289ZM 32.4483 19.5722C 31.531 19.2472 31.0106 18.777 30.4667 17.7807C 30.024 16.9686 29.9324 16.5722 29.871 15.1759C 29.7849 13.2525 30.0748 12.1443 30.936 11.0985C 32.582 9.10201 35.5143 9.41313 36.6857 11.7084C 37.1848 12.6883 37.1936 16.6399 36.6989 17.7296C 35.966 19.343 34.0926 20.1549 32.4483 19.5722ZM 65.148 22.8289C 66.4188 22.5601 67.3186 22.0845 68.171 21.2322L 68.8757 20.5274L 68.997 21.5995L 69.1183 22.6717L 69.7702 22.6717L 70.4223 22.6717L 70.3758 17.3175C 70.3283 11.885 70.1938 10.5019 69.606 9.35352C 69.1851 8.53264 68.2429 7.63889 67.4522 7.31113C 65.8782 6.6574 63.4336 6.7971 61.5574 7.64609C 60.5566 8.09938 60.5136 8.16889 60.786 8.88515L 60.959 9.34024L 61.9907 8.86738C 63.3519 8.24447 65.3167 8.0969 66.4557 8.53174C 67.9134 9.08897 68.7079 10.4088 68.7104 12.278L 68.7113 13.1328L 67.5575 13.1328C 64.9705 13.1328 62.0451 14.068 60.8299 15.2832C 59.8493 16.2638 59.4678 17.1926 59.4599 18.6224C 59.446 20.9256 60.6551 22.3729 63.0426 22.9088C 63.6867 23.053 64.178 23.0345 65.148 22.8289ZM 62.5979 21.2709C 61.613 20.7251 61.2693 20.1249 61.1849 18.7981C 61.0954 17.3816 61.3221 16.7665 62.242 15.9351C 63.1297 15.1338 64.809 14.6144 67.0111 14.4589L 68.7113 14.3395L 68.7113 16.3992C 68.7113 18.4018 68.6956 18.4843 68.1271 19.4334C 67.2938 20.8219 66.2334 21.4423 64.5251 21.5406C 63.4792 21.6013 63.0997 21.5478 62.5979 21.2709ZM 79.5162 22.8501C 80.0417 22.7506 80.4989 22.6418 80.5322 22.6082C 80.5648 22.5759 80.5409 22.2974 80.4795 21.9889L 80.3679 21.429L 79.2537 21.5327C 77.8925 21.6603 77.172 21.3483 76.7439 20.4475C 76.4908 19.9142 76.4505 19.031 76.4505 14.1408L 76.4505 8.45368L 78.6094 8.45368L 80.7695 8.45368L 80.7695 7.82448L 80.7695 7.19437L 78.6094 7.19437L 76.4505 7.19437L 76.4505 5.5749C 76.4505 4.68384 76.3986 3.95453 76.3363 3.95453C 76.273 3.95453 75.9091 4.04856 75.526 4.16352L 74.8299 4.37183L 74.8299 5.77511L 74.8299 7.17862L 73.5261 7.23126L 72.2211 7.28391L 72.1649 7.86924L 72.1077 8.45368L 73.4602 8.45368L 74.8124 8.45368L 74.8662 14.4378C 74.9179 20.1567 74.9372 20.4536 75.3064 21.1418C 75.815 22.0908 76.2571 22.4695 77.2001 22.7639C 78.1728 23.0672 78.337 23.0732 79.5162 22.8501ZM 22.1151 22.3403L 23.3007 21.9554L 23.0291 20.6489C 22.8789 19.9299 22.7356 19.314 22.7102 19.2789C 22.6847 19.2445 22.1478 19.3457 21.5159 19.5038C 20.8446 19.6726 19.6188 19.792 18.5669 19.792C 16.9589 19.792 16.6608 19.7394 15.79 19.2973C 14.6546 18.7217 13.8428 17.683 13.7013 16.6277L 13.6063 15.923L 18.7979 15.923L 23.9895 15.923L 23.9737 13.8527C 23.9614 12.1574 23.8867 11.6083 23.5616 10.8121C 22.3666 7.88859 20.1645 6.51073 16.9877 6.69789C 13.8473 6.88326 11.5747 8.53804 10.4122 11.4879C 9.32067 14.2585 9.7418 18.0915 11.3637 20.1418C 12.168 21.1566 13.5053 22.0724 14.8058 22.4967C 16.3322 22.995 20.3647 22.9079 22.1151 22.3403ZM 13.6432 12.8183C 13.6468 12.2402 14.4835 10.6945 15.051 10.2165C 16.7243 8.80957 18.9675 9.24531 19.9483 11.1689C 20.1425 11.5484 20.3006 12.1461 20.3006 12.4957L 20.3006 13.1328L 16.971 13.1328C 13.9193 13.1328 13.6414 13.1065 13.6432 12.8183ZM 4.10368 17.7226C 4.20131 12.4395 4.22313 12.3209 5.30225 11.2999C 5.98253 10.6567 6.62658 10.4333 7.80491 10.4333L 8.78302 10.4333L 8.78302 8.5187L 8.78302 6.60476L 7.703 6.70217C 6.01582 6.85514 4.46743 7.94663 3.81371 9.44395L 3.57818 9.9834L 3.5712 9.33417C 3.5667 8.97649 3.51226 8.30859 3.44905 7.849L 3.33477 7.01418L 1.67211 7.01418L 0.00877269 7.01418L -9.88584e-07 22.8235L 4.01324 22.822L 4.10368 17.7226ZM 46.2155 17.0925C 46.3159 10.9851 46.2999 11.0695 47.626 9.74359C 48.531 8.83859 49.5091 8.39812 50.8053 8.31309C 52.329 8.21365 53.6101 8.88763 54.3334 10.169C 55.0505 11.4404 55.206 12.8525 55.2105 18.1269L 55.2138 22.6717L 56.6542 22.6717L 56.6542 17.2014C 56.6542 12.262 56.6646 11.6038 56.2984 10.5802C 54.271 4.92095 48.3886 6.76898 46.2155 9.64169L 46.1163 2.32426L 44.5961 1.95083L 44.5961 22.6919L 46.1514 22.6944L 46.2155 17.0925Z"/>
</defs>
</svg>
