<svg width="32" height="32" viewBox="0 0 32 32" version="1.1" xmlns="http://www.w3.org/2000/svg" xmlns:xlink="http://www.w3.org/1999/xlink" xmlns:figma="http://www.figma.com/figma/ns">
<title>search param</title>
<desc>Created using Figma</desc>
<g id="Canvas" transform="translate(-5678 357)" figma:type="canvas">
<g id="search param" figma:type="frame">
<g id="Subtract" figma:type="vector-operation">
<use xlink:href="#path0_fill" transform="translate(5678 -357)" fill="#FFFFFF"/>
</g>
</g>
</g>
<defs>
<path id="path0_fill" fill-rule="evenodd" d="M 32 0L 0 0L 0 32L 32 32L 32 0ZM 20.1172 12.6719L 18.0938 13.7031L 20.1172 14.7266L 19.5938 15.6328L 17.6875 14.3984L 17.8125 16.6562L 16.75 16.6562L 16.875 14.3906L 14.9688 15.6328L 14.4453 14.7266L 16.4766 13.7031L 14.4453 12.6719L 14.9688 11.75L 16.875 13.0234L 16.75 10.7266L 17.8125 10.7266L 17.6875 13.0234L 19.5938 11.75L 20.1172 12.6719ZM 13.9922 21.0625C 13.9922 21.6172 13.5391 22.0781 12.9766 22.0781C 12.4219 22.0781 11.9609 21.6172 11.9609 21.0625C 11.9609 20.5 12.4219 20.0469 12.9766 20.0469C 13.5391 20.0469 13.9922 20.5 13.9922 21.0625Z"/>
</defs>
</svg>
