<svg width="18" height="18" viewBox="0 0 18 18" version="1.1" xmlns="http://www.w3.org/2000/svg" xmlns:xlink="http://www.w3.org/1999/xlink" xmlns:figma="http://www.figma.com/figma/ns">
<title>Vector</title>
<desc>Created using Figma</desc>
<g id="Canvas" transform="translate(-5450 -3883)" figma:type="canvas">
<g id="Vector" figma:type="vector">
<use xlink:href="#path0_fill" transform="translate(5450 3883)" fill="#233043"/>
</g>
</g>
<defs>
<path id="path0_fill" d="M 16 0C 17.105 0 18 0.895 18 2L 18 16C 18 17.105 17.105 18 16 18L 2 18C 0.895 18 0 17.105 0 16L 0 2C 0 0.895 0.895 0 2 0L 16 0ZM 15.5 15.5L 15.5 10.2C 15.5 8.4 14.04 6.94 12.24 6.94C 11.39 6.94 10.4 7.46 9.92 8.24L 9.92 7.13L 7.13 7.13L 7.13 15.5L 9.92 15.5L 9.92 10.57C 9.92 9.8 10.54 9.17 11.31 9.17C 12.083 9.17 12.71 9.797 12.71 10.57L 12.71 15.5L 15.5 15.5ZM 3.88 5.56C 4.808 5.56 5.56 4.808 5.56 3.88C 5.56 2.95 4.81 2.19 3.88 2.19C 2.947 2.19 2.19 2.947 2.19 3.88C 2.19 4.81 2.95 5.56 3.88 5.56ZM 5.27 15.5L 5.27 7.13L 2.5 7.13L 2.5 15.5L 5.27 15.5Z"/>
</defs>
</svg>
